<svg xmlns="http://www.w3.org/2000/svg" version="1.1" baseProfile="full" width="1029" height="300" style="user-select: none; position: absolute; left: 0px; top: 0px;"><path d="M 102.9 240.5 L 926.1 240.5" fill="none" stroke="#ccc" stroke-width="1" paint-order="fill" stroke-opacity="1" stroke-dasharray="" stroke-linecap="butt" stroke-linejoin="miter" stroke-miterlimit="10" clip-path="none"></path><path d="M 102.9 214.5 L 926.1 214.5" fill="none" stroke="#ccc" stroke-width="1" paint-order="fill" stroke-opacity="1" stroke-dasharray="" stroke-linecap="butt" stroke-linejoin="miter" stroke-miterlimit="10" clip-path="none"></path><path d="M 102.9 188.5 L 926.1 188.5" fill="none" stroke="#ccc" stroke-width="1" paint-order="fill" stroke-opacity="1" stroke-dasharray="" stroke-linecap="butt" stroke-linejoin="miter" stroke-miterlimit="10" clip-path="none"></path><path d="M 102.9 163.5 L 926.1 163.5" fill="none" stroke="#ccc" stroke-width="1" paint-order="fill" stroke-opacity="1" stroke-dasharray="" stroke-linecap="butt" stroke-linejoin="miter" stroke-miterlimit="10" clip-path="none"></path><path d="M 102.9 137.5 L 926.1 137.5" fill="none" stroke="#ccc" stroke-width="1" paint-order="fill" stroke-opacity="1" stroke-dasharray="" stroke-linecap="butt" stroke-linejoin="miter" stroke-miterlimit="10" clip-path="none"></path><path d="M 102.9 111.5 L 926.1 111.5" fill="none" stroke="#ccc" stroke-width="1" paint-order="fill" stroke-opacity="1" stroke-dasharray="" stroke-linecap="butt" stroke-linejoin="miter" stroke-miterlimit="10" clip-path="none"></path><path d="M 102.9 85.5 L 926.1 85.5" fill="none" stroke="#ccc" stroke-width="1" paint-order="fill" stroke-opacity="1" stroke-dasharray="" stroke-linecap="butt" stroke-linejoin="miter" stroke-miterlimit="10" clip-path="none"></path><path d="M 102.9 60.5 L 926.1 60.5" fill="none" stroke="#ccc" stroke-width="1" paint-order="fill" stroke-opacity="1" stroke-dasharray="" stroke-linecap="butt" stroke-linejoin="miter" stroke-miterlimit="10" clip-path="none"></path><path d="M 103.5 240 L 103.5 60" fill="none" stroke="#333" stroke-width="1" paint-order="fill" stroke-opacity="1" stroke-dasharray="" stroke-linecap="round" stroke-linejoin="miter" stroke-miterlimit="10" clip-path="none"></path><text alignment-baseline="baseline" x="0" y="0" fill="#333" fill-opacity="1" stroke="none" transform="matrix(1,2.4492937051703357e-16,-2.4492937051703357e-16,1,102.9000015258789,45)" clip-path="none" style="font-style: normal; font-variant: normal; font-weight: normal; font-stretch: normal; font-size: 12px; line-height: normal; font-family: &quot;Microsoft YaHei&quot;;"><tspan alignment-baseline="baseline" text-anchor="middle" x="0" y="0">Unit (million)</tspan></text><path d="M 102.9 240.5 L 926.1 240.5" fill="none" stroke="#333" stroke-width="1" paint-order="fill" stroke-opacity="1" stroke-dasharray="" stroke-linecap="round" stroke-linejoin="miter" stroke-miterlimit="10" clip-path="none"></path><path d="M 102.9 240.5 L 97.9 240.5" fill="none" stroke="#333" stroke-width="1" paint-order="fill" stroke-opacity="1" stroke-dasharray="" stroke-linecap="butt" stroke-linejoin="miter" stroke-miterlimit="10" clip-path="none"></path><path d="M 102.9 214.5 L 97.9 214.5" fill="none" stroke="#333" stroke-width="1" paint-order="fill" stroke-opacity="1" stroke-dasharray="" stroke-linecap="butt" stroke-linejoin="miter" stroke-miterlimit="10" clip-path="none"></path><path d="M 102.9 188.5 L 97.9 188.5" fill="none" stroke="#333" stroke-width="1" paint-order="fill" stroke-opacity="1" stroke-dasharray="" stroke-linecap="butt" stroke-linejoin="miter" stroke-miterlimit="10" clip-path="none"></path><path d="M 102.9 163.5 L 97.9 163.5" fill="none" stroke="#333" stroke-width="1" paint-order="fill" stroke-opacity="1" stroke-dasharray="" stroke-linecap="butt" stroke-linejoin="miter" stroke-miterlimit="10" clip-path="none"></path><path d="M 102.9 137.5 L 97.9 137.5" fill="none" stroke="#333" stroke-width="1" paint-order="fill" stroke-opacity="1" stroke-dasharray="" stroke-linecap="butt" stroke-linejoin="miter" stroke-miterlimit="10" clip-path="none"></path><path d="M 102.9 111.5 L 97.9 111.5" fill="none" stroke="#333" stroke-width="1" paint-order="fill" stroke-opacity="1" stroke-dasharray="" stroke-linecap="butt" stroke-linejoin="miter" stroke-miterlimit="10" clip-path="none"></path><path d="M 102.9 85.5 L 97.9 85.5" fill="none" stroke="#333" stroke-width="1" paint-order="fill" stroke-opacity="1" stroke-dasharray="" stroke-linecap="butt" stroke-linejoin="miter" stroke-miterlimit="10" clip-path="none"></path><path d="M 102.9 60.5 L 97.9 60.5" fill="none" stroke="#333" stroke-width="1" paint-order="fill" stroke-opacity="1" stroke-dasharray="" stroke-linecap="butt" stroke-linejoin="miter" stroke-miterlimit="10" clip-path="none"></path><path d="M 103.5 240 L 103.5 245" fill="none" stroke="#333" stroke-width="1" paint-order="fill" stroke-opacity="1" stroke-dasharray="" stroke-linecap="butt" stroke-linejoin="miter" stroke-miterlimit="10" clip-path="none"></path><path d="M 377.5 240 L 377.5 245" fill="none" stroke="#333" stroke-width="1" paint-order="fill" stroke-opacity="1" stroke-dasharray="" stroke-linecap="butt" stroke-linejoin="miter" stroke-miterlimit="10" clip-path="none"></path><path d="M 651.5 240 L 651.5 245" fill="none" stroke="#333" stroke-width="1" paint-order="fill" stroke-opacity="1" stroke-dasharray="" stroke-linecap="butt" stroke-linejoin="miter" stroke-miterlimit="10" clip-path="none"></path><path d="M 926.5 240 L 926.5 245" fill="none" stroke="#333" stroke-width="1" paint-order="fill" stroke-opacity="1" stroke-dasharray="" stroke-linecap="butt" stroke-linejoin="miter" stroke-miterlimit="10" clip-path="none"></path><text alignment-baseline="middle" x="0" y="0" fill="#333" fill-opacity="1" stroke="none" transform="matrix(1,2.4492937051703357e-16,-2.4492937051703357e-16,1,94.9000015258789,240)" clip-path="none" style="font-style: normal; font-variant: normal; font-weight: normal; font-stretch: normal; font-size: 12px; line-height: normal; font-family: &quot;Microsoft YaHei&quot;;"><tspan alignment-baseline="middle" text-anchor="end" x="0" y="0">0</tspan></text><text alignment-baseline="middle" x="0" y="0" fill="#333" fill-opacity="1" stroke="none" transform="matrix(1,2.4492937051703357e-16,-2.4492937051703357e-16,1,94.9000015258789,214.2857208251953)" clip-path="none" style="font-style: normal; font-variant: normal; font-weight: normal; font-stretch: normal; font-size: 12px; line-height: normal; font-family: &quot;Microsoft YaHei&quot;;"><tspan alignment-baseline="middle" text-anchor="end" x="0" y="0">100</tspan></text><text alignment-baseline="middle" x="0" y="0" fill="#333" fill-opacity="1" stroke="none" transform="matrix(1,2.4492937051703357e-16,-2.4492937051703357e-16,1,94.9000015258789,188.57142639160156)" clip-path="none" style="font-style: normal; font-variant: normal; font-weight: normal; font-stretch: normal; font-size: 12px; line-height: normal; font-family: &quot;Microsoft YaHei&quot;;"><tspan alignment-baseline="middle" text-anchor="end" x="0" y="0">200</tspan></text><text alignment-baseline="middle" x="0" y="0" fill="#333" fill-opacity="1" stroke="none" transform="matrix(1,2.4492937051703357e-16,-2.4492937051703357e-16,1,94.9000015258789,162.85714721679688)" clip-path="none" style="font-style: normal; font-variant: normal; font-weight: normal; font-stretch: normal; font-size: 12px; line-height: normal; font-family: &quot;Microsoft YaHei&quot;;"><tspan alignment-baseline="middle" text-anchor="end" x="0" y="0">300</tspan></text><text alignment-baseline="middle" x="0" y="0" fill="#333" fill-opacity="1" stroke="none" transform="matrix(1,2.4492937051703357e-16,-2.4492937051703357e-16,1,94.9000015258789,137.14285278320312)" clip-path="none" style="font-style: normal; font-variant: normal; font-weight: normal; font-stretch: normal; font-size: 12px; line-height: normal; font-family: &quot;Microsoft YaHei&quot;;"><tspan alignment-baseline="middle" text-anchor="end" x="0" y="0">400</tspan></text><text alignment-baseline="middle" x="0" y="0" fill="#333" fill-opacity="1" stroke="none" transform="matrix(1,2.4492937051703357e-16,-2.4492937051703357e-16,1,94.9000015258789,111.42857360839844)" clip-path="none" style="font-style: normal; font-variant: normal; font-weight: normal; font-stretch: normal; font-size: 12px; line-height: normal; font-family: &quot;Microsoft YaHei&quot;;"><tspan alignment-baseline="middle" text-anchor="end" x="0" y="0">500</tspan></text><text alignment-baseline="middle" x="0" y="0" fill="#333" fill-opacity="1" stroke="none" transform="matrix(1,2.4492937051703357e-16,-2.4492937051703357e-16,1,94.9000015258789,85.71427917480469)" clip-path="none" style="font-style: normal; font-variant: normal; font-weight: normal; font-stretch: normal; font-size: 12px; line-height: normal; font-family: &quot;Microsoft YaHei&quot;;"><tspan alignment-baseline="middle" text-anchor="end" x="0" y="0">600</tspan></text><text alignment-baseline="middle" x="0" y="0" fill="#333" fill-opacity="1" stroke="none" transform="matrix(1,2.4492937051703357e-16,-2.4492937051703357e-16,1,94.9000015258789,60)" clip-path="none" style="font-style: normal; font-variant: normal; font-weight: normal; font-stretch: normal; font-size: 12px; line-height: normal; font-family: &quot;Microsoft YaHei&quot;;"><tspan alignment-baseline="middle" text-anchor="end" x="0" y="0">700</tspan></text><text alignment-baseline="hanging" x="0" y="0" fill="#333" fill-opacity="1" stroke="none" transform="matrix(1,0,0,1,240.10000610351562,248)" clip-path="none" style="font-style: normal; font-variant: normal; font-weight: normal; font-stretch: normal; font-size: 12px; line-height: normal; font-family: &quot;Microsoft YaHei&quot;;"><tspan alignment-baseline="hanging" text-anchor="middle" x="0" y="0">2015</tspan><tspan alignment-baseline="hanging" text-anchor="middle" x="0" y="12"></tspan><tspan alignment-baseline="hanging" text-anchor="middle" x="0" y="24">81.02%</tspan></text><text alignment-baseline="hanging" x="0" y="0" fill="#333" fill-opacity="1" stroke="none" transform="matrix(1,0,0,1,514.5,248)" clip-path="none" style="font-style: normal; font-variant: normal; font-weight: normal; font-stretch: normal; font-size: 12px; line-height: normal; font-family: &quot;Microsoft YaHei&quot;;"><tspan alignment-baseline="hanging" text-anchor="middle" x="0" y="0">2016</tspan><tspan alignment-baseline="hanging" text-anchor="middle" x="0" y="12"></tspan><tspan alignment-baseline="hanging" text-anchor="middle" x="0" y="24">57.3%</tspan></text><text alignment-baseline="hanging" x="0" y="0" fill="#333" fill-opacity="1" stroke="none" transform="matrix(1,0,0,1,788.9000244140625,248)" clip-path="none" style="font-style: normal; font-variant: normal; font-weight: normal; font-stretch: normal; font-size: 12px; line-height: normal; font-family: &quot;Microsoft YaHei&quot;;"><tspan alignment-baseline="hanging" text-anchor="middle" x="0" y="0">2017</tspan><tspan alignment-baseline="hanging" text-anchor="middle" x="0" y="12"></tspan><tspan alignment-baseline="hanging" text-anchor="middle" x="0" y="24">23.26%</tspan></text><path d="M 130.34 240 L 349.86 240 L 349.86 82.69800000000001 L 130.34 82.69800000000001 L 130.34 240 Z" fill="#c23531" fill-opacity="undefined" stroke="none" clip-path="none"></path><path d="M 404.74 240 L 624.26 240 L 624.26 80.8389 L 404.74 80.8389 L 404.74 240 Z" fill="#c23531" fill-opacity="undefined" stroke="none" clip-path="none"></path><path d="M 679.14 240 L 898.66 240 L 898.66 120.2923 L 679.14 120.2923 L 679.14 240 Z" fill="#c23531" fill-opacity="undefined" stroke="none" clip-path="none"></path><path d="M -13.9784 -15 L 36.9785 -15 L 36.9785 15 L -13.9784 15 L -13.9784 -15 Z" fill="rgba(0, 0, 0, 0.002)" fill-opacity="1" stroke="#ccc" stroke-width="0" paint-order="fill" stroke-opacity="1" stroke-dasharray="" stroke-linecap="butt" stroke-linejoin="miter" stroke-miterlimit="10" transform="matrix(1,0,0,1,992.0215454101562,15)" clip-path="none"></path><path d="M -6.4526 -1.5776 L -0.0905 4.2672 L 6.4784 -1.4483 M -6.4784 3.7759 L -6.4784 7.5 L 6.2457 7.5 L 6.2457 3.7759 M -0.1164 4.1638 L -0.1164 -7.5" fill="none" stroke="#666" stroke-width="1" paint-order="fill" stroke-opacity="1" stroke-dasharray="" stroke-linecap="butt" stroke-linejoin="miter" stroke-miterlimit="10" transform="matrix(1,0,0,1,992.0215454101562,15)" clip-path="none"></path><image xmlns:xlink="http://www.w3.org/1999/xlink" xlink:href="http://pic.sfont.cn/svg/img/f7h22j.svg" width="15" height="15" x="-7.5" y="-7.5" transform="matrix(1,0,0,1,1016.5,15)" clip-path="none"></image><path d="M -120 -5 L 120 -5 L 120 45 L -120 45 L -120 -5 Z" fill="rgba(0,0,0,0)" fill-opacity="1" stroke="#ccc" stroke-width="0" paint-order="fill" stroke-opacity="1" stroke-dasharray="" stroke-linecap="butt" stroke-linejoin="miter" stroke-miterlimit="10" transform="matrix(1,0,0,1,514.5,5)" clip-path="none"></path><text alignment-baseline="hanging" x="0" y="0" fill="#333" fill-opacity="1" stroke="none" transform="matrix(1,0,0,1,514.5,5)" clip-path="none" style="font-style: normal; font-variant: normal; font-weight: bolder; font-stretch: normal; font-size: 18px; line-height: normal; font-family: &quot;Microsoft YaHei&quot;;"><tspan alignment-baseline="hanging" text-anchor="middle" x="0" y="0">Turnover (in billion RMB)</tspan></text><text alignment-baseline="hanging" x="0" y="28" fill="#aaa" fill-opacity="1" stroke="none" transform="matrix(1,0,0,1,514.5,5)" clip-path="none" style="font-style: normal; font-variant: normal; font-weight: normal; font-stretch: normal; font-size: 12px; line-height: normal; font-family: &quot;Microsoft YaHei&quot;;"><tspan alignment-baseline="hanging" text-anchor="middle" x="0" y="28">CAGR: -12.8%</tspan></text></svg>